<svg width="800" height="800" viewBox="0 0 800 800" fill="none" xmlns="http://www.w3.org/2000/svg">
<path d="M6.46689 114.206C3.07962 113.346 0.166564 112.494 0.000279986 112.315C-0.166004 112.129 73.7566 111.993 164.283 112C269.991 112.015 332.236 112.287 338.266 112.759C343.433 113.16 351.538 113.991 356.28 114.607C361.022 115.223 368.782 116.483 373.524 117.399C378.266 118.323 386.716 120.414 392.308 122.047C397.9 123.687 405.1 126.007 408.321 127.21C411.535 128.413 417.355 130.826 421.254 132.58C425.152 134.335 432.906 138.424 438.498 141.667C444.09 144.911 452.127 150.117 456.358 153.239C460.595 156.361 466.274 160.815 468.983 163.143C471.693 165.477 475.85 169.301 478.222 171.642C480.593 173.977 485.415 179.168 488.931 183.164C492.454 187.16 497.449 193.175 500.036 196.519C502.622 199.863 506.939 205.993 509.631 210.124C512.322 214.263 516.707 221.832 519.374 226.952C522.047 232.072 526.105 240.615 528.402 245.928C530.7 251.242 534.105 260.107 535.978 265.62C537.844 271.134 540.258 278.868 541.336 282.806C542.407 286.745 544.101 293.913 546.891 307.511L539.112 322.728C534.838 331.099 528.094 344.231 524.134 351.908C520.174 359.591 513.923 371.836 510.253 379.119C506.576 386.401 498.391 402.513 492.06 414.923C485.735 427.332 479.404 439.813 478 442.671C476.596 445.528 475.241 447.855 474.988 447.841C474.736 447.826 474.101 446.781 473.578 445.513C473.061 444.246 466.163 428.385 458.255 410.268C450.347 392.151 442.132 373.626 440.001 369.094C437.87 364.561 434.71 358.603 432.98 355.846C430.603 352.058 429.839 350.225 429.845 348.327C429.851 346.953 429.439 343.73 428.927 341.167C428.416 338.603 427.148 333.454 426.107 329.709C425.066 325.971 422.442 318.718 420.281 313.598C418.113 308.478 414.467 301.231 412.176 297.486C409.885 293.748 405.241 287.497 401.854 283.601C398.159 279.355 393.109 274.521 389.229 271.521C385.675 268.771 380.403 265.148 377.527 263.472C374.651 261.804 368.689 258.975 364.286 257.199C359.883 255.416 353.508 253.261 350.121 252.409C346.734 251.549 340.218 250.16 335.648 249.322C327.457 247.812 325.887 247.79 135.183 247.325L135.645 242.505C135.898 239.863 136.409 233.991 136.778 229.458C137.154 224.926 137.277 218.323 137.055 214.779C136.84 211.234 136.243 206.079 135.731 203.322C135.226 200.565 134.087 196.218 133.2 193.655C132.313 191.091 130.774 187.389 129.776 185.42C128.784 183.451 126.407 179.619 124.492 176.906C122.583 174.184 118.389 169.501 115.168 166.501C111.947 163.493 106.687 159.133 103.466 156.812C100.245 154.499 94.4251 150.74 90.5328 148.463C86.6405 146.193 80.1247 142.67 76.0599 140.643C71.9952 138.617 64.3708 135.094 59.1236 132.809C53.8764 130.525 46.5291 127.518 42.8031 126.121C39.0771 124.732 30.7629 121.825 24.3271 119.677C17.8912 117.521 9.85416 115.065 6.46689 114.206Z" fill="black"/>
<path d="M738.426 114.564C741.985 113.941 748.076 113.16 751.975 112.831C755.873 112.494 768.271 112.179 779.535 112.122C790.799 112.065 800.006 112.265 800 112.559C799.988 112.852 798.922 115.187 797.629 117.75C796.33 120.314 792.554 127.561 789.229 133.862C785.909 140.164 782.023 147.575 780.6 150.332C779.178 153.089 770.728 169.365 761.822 186.494C752.923 203.622 743.925 221.03 741.825 225.162C739.731 229.301 732.618 243.157 726.022 255.953C719.42 268.757 711.568 284.059 708.562 289.967C705.563 295.875 698.259 310.218 692.34 321.833C686.416 333.454 675.619 354.557 668.346 368.736C661.073 382.914 652.709 399.19 649.765 404.898C646.815 410.612 637.393 428.979 628.82 445.714C620.247 462.456 605.885 490.49 596.905 508.013C587.926 525.535 579.409 542.134 577.98 544.891C576.551 547.648 571.969 556.67 567.799 564.941C563.63 573.212 553.025 593.999 544.243 611.128C535.46 628.256 526.931 644.533 525.292 647.29C523.648 650.047 520.427 654.687 518.124 657.594C515.826 660.509 511.725 664.834 509.015 667.204C506.305 669.574 501.317 673.061 497.929 674.959C494.542 676.857 489.135 679.191 485.92 680.151C482.705 681.103 477.92 682.242 475.296 682.671C472.673 683.101 466.853 683.43 462.363 683.409C457.873 683.38 452.189 682.979 445.26 681.662L439.804 668.414C436.804 661.132 423.748 630.999 410.796 601.461C397.845 571.923 382.466 536.957 376.622 523.766C370.783 510.576 357.752 480.923 347.664 457.887C337.582 434.851 326.41 409.552 322.838 401.675C319.272 393.798 315.238 385.42 313.883 383.057C312.522 380.694 309.843 376.505 307.922 373.748C306.006 370.991 302.656 366.852 300.488 364.554C298.314 362.248 293.911 358.317 290.69 355.818C287.469 353.318 282.209 349.838 278.988 348.091C275.767 346.344 270.643 343.888 267.595 342.642C264.546 341.389 257.482 338.947 251.89 337.207C246.298 335.459 237.571 333.082 232.49 331.908C227.409 330.733 218.541 328.979 212.783 327.998C207.024 327.017 197.879 325.692 192.459 325.041C187.039 324.389 181.496 323.594 180.142 323.265C178.787 322.935 212.321 322.749 254.662 322.849C310.755 322.985 333.148 323.272 337.188 323.909C340.236 324.382 345.36 325.391 348.581 326.143C351.802 326.895 356.926 328.349 359.975 329.38C363.023 330.404 368.012 332.638 371.061 334.335C374.109 336.032 379.098 339.376 382.146 341.768C385.195 344.153 389.53 347.977 391.778 350.261C394.032 352.545 397.863 356.992 400.302 360.143C402.741 363.293 407.04 369.903 409.854 374.822C412.804 379.971 419.277 393.505 425.097 406.688C430.658 419.291 443.641 449.015 453.944 472.739C467.986 505.07 472.845 515.646 473.35 514.987C473.72 514.5 476.941 508.464 480.506 501.568C484.072 494.679 493.076 477.114 500.522 462.542C507.968 447.97 518.487 427.347 523.9 416.713C529.314 406.079 536.6 391.743 540.092 384.847C543.59 377.959 550.888 363.616 556.307 352.982C561.733 342.348 570.054 326.072 574.796 316.82C579.544 307.568 587.489 292.101 592.459 282.448C597.435 272.803 607.609 252.824 615.08 238.051C622.544 223.286 632.737 203.307 637.719 193.655C642.707 184.009 648.749 173.053 651.145 169.308C653.547 165.57 657.882 159.791 660.783 156.483C663.69 153.168 667.859 148.792 670.064 146.759C672.269 144.732 676.285 141.345 678.994 139.233C681.704 137.12 687.801 133.196 692.544 130.511C697.286 127.826 705.046 124.174 709.788 122.398C714.53 120.622 721.458 118.388 725.185 117.428C728.91 116.476 734.866 115.187 738.426 114.564Z" fill="black"/>
<path d="M121.308 397.737C122.01 390.454 123.315 378.288 124.208 370.705L125.834 356.92L154.836 356.927C175.418 356.927 186.787 357.235 193.999 357.987C199.591 358.567 206.796 359.541 210.011 360.157C213.232 360.766 218.91 361.911 222.636 362.706C226.362 363.501 234.19 365.42 240.035 366.981C250.621 369.803 250.658 369.817 250.665 371.779C250.665 372.86 249.556 384.224 248.201 397.021C246.846 409.824 244.5 432.051 242.985 446.43C241.47 460.809 239.394 480.623 238.372 490.469C237.35 500.315 235.674 516.828 234.652 527.168C233.636 537.508 232.798 546.609 232.798 547.397C232.798 548.815 233.205 548.829 268.98 548.822C288.879 548.815 308.488 548.493 312.553 548.099C316.618 547.705 322.992 546.874 326.718 546.258C330.444 545.643 337.095 544.053 341.499 542.728C345.902 541.403 350.059 540.107 350.737 539.842C351.839 539.42 353.73 543.408 368.831 577.938C378.106 599.148 390.368 627.053 396.083 639.95C401.798 652.847 406.473 663.645 406.479 663.939C406.479 664.232 403.363 665.851 399.551 667.526C395.738 669.202 388.6 671.987 383.686 673.713C378.777 675.439 371.43 677.716 367.365 678.776C363.301 679.836 356.095 681.454 351.353 682.378C346.611 683.301 338.715 684.562 333.801 685.177C328.892 685.793 321.126 686.624 316.556 687.025C311.383 687.476 267.213 687.748 199.695 687.748C113.265 687.748 91.1487 687.569 91.1549 686.853C91.1549 686.359 91.7153 680.158 92.3928 673.069C93.0702 665.979 95.6876 641.003 98.2127 617.573C100.738 594.143 104.895 554.665 107.457 529.853C110.013 505.041 113.887 468.149 116.067 447.862C118.247 427.576 120.606 405.019 121.308 397.737Z" fill="black"/>
</svg>
