<svg width="800" height="800" viewBox="0 0 800 800" fill="none" xmlns="http://www.w3.org/2000/svg">
<path d="M71.3918 161.839C68.5676 161.123 66.1389 160.412 66.0002 160.263C65.8616 160.108 127.495 159.994 202.971 160C291.105 160.012 343.002 160.239 348.029 160.633C352.337 160.967 359.095 161.66 363.048 162.173C367.002 162.687 373.472 163.738 377.426 164.502C381.38 165.272 388.425 167.015 393.087 168.377C397.749 169.744 403.752 171.678 406.437 172.681C409.118 173.684 413.97 175.696 417.221 177.159C420.471 178.622 426.936 182.031 431.598 184.735C436.26 187.44 442.961 191.78 446.489 194.383C450.022 196.986 454.756 200.7 457.015 202.64C459.275 204.586 462.741 207.775 464.717 209.727C466.694 211.673 470.715 216.002 473.647 219.333C476.584 222.665 480.748 227.68 482.905 230.468C485.062 233.256 488.661 238.366 490.905 241.811C493.149 245.262 496.805 251.573 499.028 255.841C501.257 260.11 504.641 267.233 506.556 271.663C508.471 276.093 511.311 283.484 512.872 288.081C514.427 292.678 516.44 299.126 517.339 302.41C518.232 305.693 519.644 311.67 521.97 323.007L515.485 335.694C511.922 342.674 506.299 353.623 502.997 360.023C499.696 366.429 494.484 376.639 491.424 382.71C488.358 388.782 481.534 402.215 476.255 412.562C470.982 422.908 465.703 433.315 464.533 435.697C463.362 438.079 462.232 440.019 462.022 440.007C461.811 439.995 461.282 439.124 460.846 438.067C460.414 437.01 454.664 423.786 448.07 408.681C441.477 393.576 434.628 378.131 432.851 374.352C431.074 370.573 428.44 365.605 426.997 363.307C425.015 360.149 424.378 358.62 424.384 357.038C424.389 355.892 424.045 353.205 423.619 351.068C423.192 348.93 422.135 344.638 421.267 341.515C420.399 338.399 418.212 332.351 416.409 328.082C414.602 323.813 411.562 317.771 409.652 314.649C407.742 311.532 403.87 306.32 401.046 303.073C397.965 299.532 393.755 295.502 390.52 293.001C387.557 290.708 383.161 287.687 380.763 286.29C378.366 284.899 373.395 282.541 369.724 281.06C366.052 279.573 360.738 277.776 357.914 277.066C355.089 276.349 349.657 275.191 345.847 274.493C339.018 273.233 337.708 273.215 178.709 272.827L179.094 268.809C179.305 266.606 179.731 261.71 180.039 257.931C180.352 254.152 180.455 248.647 180.27 245.692C180.09 242.737 179.592 238.438 179.166 236.139C178.745 233.841 177.795 230.217 177.056 228.08C176.316 225.942 175.033 222.856 174.201 221.214C173.374 219.572 171.392 216.378 169.795 214.115C168.203 211.846 164.706 207.942 162.021 205.44C159.335 202.933 154.95 199.297 152.265 197.362C149.579 195.434 144.727 192.3 141.482 190.401C138.237 188.508 132.804 185.571 129.415 183.881C126.026 182.192 119.669 179.254 115.294 177.35C110.919 175.445 104.794 172.938 101.687 171.774C98.5805 170.615 91.6486 168.191 86.2827 166.4C80.9168 164.603 74.2159 162.556 71.3918 161.839Z" fill="black"/>
<path d="M681.663 162.138C684.631 161.618 689.709 160.967 692.959 160.693C696.21 160.412 706.546 160.149 715.938 160.102C725.329 160.054 733.006 160.221 733 160.466C732.99 160.711 732.102 162.657 731.024 164.794C729.94 166.932 726.793 172.974 724.02 178.228C721.252 183.481 718.012 189.661 716.826 191.959C715.64 194.258 708.595 207.828 701.17 222.109C693.75 236.39 686.248 250.904 684.497 254.349C682.751 257.8 676.821 269.352 671.321 280.021C665.817 290.696 659.27 303.455 656.764 308.38C654.263 313.306 648.174 325.264 643.239 334.948C638.299 344.638 629.298 362.232 623.234 374.053C617.17 385.875 610.197 399.445 607.742 404.203C605.283 408.968 597.426 424.282 590.279 438.234C583.131 452.193 571.157 475.566 563.67 490.176C556.184 504.785 549.082 518.624 547.891 520.923C546.7 523.221 542.879 530.744 539.403 537.64C535.927 544.535 527.085 561.867 519.763 576.148C512.44 590.429 505.329 604 503.963 606.298C502.592 608.597 499.906 612.465 497.986 614.889C496.071 617.319 492.651 620.925 490.391 622.902C488.132 624.878 483.973 627.785 481.149 629.367C478.325 630.95 473.816 632.896 471.136 633.696C468.456 634.49 464.466 635.439 462.278 635.797C460.091 636.156 455.239 636.43 451.495 636.412C447.752 636.389 443.013 636.054 437.236 634.956L432.687 623.911C430.186 617.839 419.3 592.716 408.502 568.088C397.703 543.461 384.882 514.308 380.009 503.31C375.141 492.313 364.276 467.59 355.865 448.384C347.459 429.177 338.145 408.084 335.166 401.517C332.193 394.949 328.83 387.964 327.7 385.994C326.566 384.024 324.332 380.531 322.73 378.233C321.133 375.934 318.34 372.483 316.532 370.567C314.72 368.644 311.048 365.367 308.363 363.283C305.677 361.199 301.292 358.298 298.607 356.841C295.921 355.384 291.649 353.336 289.107 352.298C286.566 351.253 280.676 349.217 276.014 347.766C271.351 346.309 264.075 344.327 259.839 343.348C255.603 342.369 248.209 340.906 243.408 340.088C238.607 339.27 230.981 338.166 226.463 337.623C221.944 337.079 217.323 336.417 216.193 336.142C215.063 335.867 243.022 335.712 278.324 335.796C325.092 335.909 343.762 336.148 347.131 336.679C349.672 337.073 353.944 337.915 356.63 338.542C359.315 339.169 363.588 340.381 366.129 341.241C368.671 342.094 372.83 343.957 375.372 345.372C377.914 346.787 382.073 349.575 384.615 351.569C387.156 353.557 390.771 356.746 392.645 358.65C394.525 360.555 397.719 364.262 399.752 366.889C401.785 369.516 405.369 375.027 407.716 379.128C410.176 383.421 415.572 394.705 420.425 405.696C425.061 416.204 435.886 440.987 444.476 460.766C456.183 487.722 460.235 496.54 460.656 495.991C460.964 495.585 463.649 490.552 466.622 484.803C469.596 479.059 477.103 464.414 483.311 452.264C489.519 440.115 498.289 422.92 502.802 414.054C507.316 405.189 513.39 393.236 516.302 387.487C519.218 381.743 525.303 369.785 529.822 360.919C534.345 352.053 541.282 338.482 545.236 330.769C549.195 323.055 555.819 310.159 559.963 302.111C564.112 294.069 572.594 277.412 578.823 265.095C585.046 252.785 593.544 236.128 597.699 228.08C601.858 220.038 606.895 210.903 608.892 207.781C610.895 204.664 614.51 199.846 616.928 197.088C619.352 194.323 622.828 190.676 624.667 188.98C626.505 187.29 629.853 184.467 632.112 182.705C634.371 180.944 639.455 177.672 643.409 175.433C647.362 173.195 653.832 170.15 657.786 168.669C661.74 167.188 667.516 165.326 670.623 164.526C673.729 163.732 678.695 162.657 681.663 162.138Z" fill="black"/>
<path d="M167.14 398.233C167.726 392.161 168.814 382.018 169.559 375.695L170.914 364.202L195.094 364.208C212.255 364.208 221.734 364.465 227.746 365.092C232.409 365.576 238.417 366.388 241.097 366.901C243.782 367.409 248.517 368.364 251.623 369.026C254.73 369.689 261.256 371.289 266.129 372.591C274.956 374.943 274.987 374.955 274.992 376.591C274.992 377.492 274.067 386.967 272.938 397.636C271.808 408.311 269.852 426.843 268.589 438.831C267.325 450.82 265.595 467.339 264.743 475.549C263.89 483.758 262.494 497.525 261.641 506.146C260.794 514.767 260.096 522.356 260.096 523.012C260.096 524.195 260.435 524.207 290.263 524.201C306.853 524.195 323.202 523.926 326.591 523.598C329.98 523.269 335.295 522.577 338.401 522.063C341.508 521.55 347.053 520.224 350.725 519.12C354.396 518.015 357.862 516.935 358.427 516.714C359.346 516.362 360.923 519.687 373.513 548.476C381.246 566.16 391.47 589.426 396.235 600.179C401 610.931 404.897 619.934 404.902 620.179C404.902 620.424 402.304 621.773 399.126 623.17C395.947 624.567 389.996 626.89 385.898 628.329C381.806 629.767 375.68 631.666 372.291 632.55C368.902 633.433 362.894 634.783 358.941 635.553C354.987 636.323 348.404 637.374 344.306 637.887C340.214 638.4 333.739 639.093 329.929 639.427C325.616 639.804 288.789 640.03 232.496 640.03C160.434 640.03 141.995 639.881 142 639.284C142 638.872 142.468 633.702 143.033 627.791C143.597 621.881 145.78 601.056 147.885 581.521C149.99 561.987 153.456 529.072 155.592 508.385C157.723 487.698 160.953 456.939 162.771 440.025C164.588 423.111 166.555 404.305 167.14 398.233Z" fill="black"/>
</svg>
